<?xml version="1.0" standalone="no"?>
<!DOCTYPE svg PUBLIC "-//W3C//DTD SVG 20010904//EN"
 "http://www.w3.org/TR/2001/REC-SVG-20010904/DTD/svg10.dtd">
<svg version="1.0" xmlns="http://www.w3.org/2000/svg"
 width="96.000000pt" height="96.000000pt" viewBox="0 0 96.000000 96.000000"
 preserveAspectRatio="xMidYMid meet">
<metadata>
Created by potrace 1.14, written by Peter Selinger 2001-2017
</metadata>
<g transform="translate(0.000000,96.000000) scale(0.100000,-0.100000)"
fill="#000000" stroke="none">
<path d="M400 857 c-49 -16 -116 -86 -132 -138 -7 -24 -20 -51 -30 -61 -18
-18 -16 -39 7 -68 18 -24 10 -56 -19 -82 -46 -40 -35 -107 21 -129 30 -11 29
-29 -3 -65 -47 -53 -77 -131 -79 -204 0 -13 43 -15 317 -18 l318 -2 -6 37 c-3
21 -9 54 -15 74 -10 39 -66 129 -80 129 -20 0 -8 41 14 49 56 22 67 89 22 129
-36 30 -39 67 -9 87 31 20 31 50 0 71 -14 8 -28 28 -31 44 -3 16 -20 47 -36
70 -54 75 -163 107 -259 77z m109 -38 c21 -23 45 -97 39 -125 -2 -15 -14 -18
-67 -19 -43 -1 -65 3 -68 12 -8 21 17 109 38 132 25 26 33 26 58 0z m-114 -39
c-8 -23 -15 -55 -15 -71 0 -16 -6 -30 -12 -30 -81 -7 -80 -8 -73 20 9 38 43
84 79 108 17 11 32 20 34 18 1 -1 -5 -21 -13 -45z m194 24 c33 -19 69 -71 73
-103 3 -21 -2 -24 -30 -26 -38 -2 -43 4 -58 65 -6 25 -15 53 -19 63 -9 21 -1
22 34 1z m127 -167 c18 -18 -26 -22 -227 -22 -158 0 -224 4 -226 12 -2 6 4 13
13 15 31 6 434 2 440 -5z m-46 -56 c11 -1 11 -4 2 -13 -18 -18 -380 -18 -386
-1 -3 6 2 13 11 15 15 3 336 2 373 -1z m-4 -60 c9 -1 10 -33 5 -113 -1 -15
-12 -18 -74 -18 -67 0 -75 2 -97 27 l-23 26 -19 -26 c-18 -25 -25 -27 -94 -27
-41 0 -74 3 -75 8 -5 44 -4 109 2 117 6 8 309 13 375 6z m-411 -68 c-1 -15 -5
-30 -11 -33 -11 -6 -18 35 -10 56 9 23 23 8 21 -23z m475 -3 c0 -15 -6 -30
-14 -33 -11 -4 -13 3 -11 31 2 20 4 38 4 40 1 2 6 0 11 -3 6 -3 10 -19 10 -35z
m-224 -80 c5 -5 42 -10 82 -12 l72 -3 -22 -33 c-28 -40 -109 -82 -158 -82 -49
0 -130 42 -158 82 l-22 33 72 3 c40 2 77 7 82 12 6 6 17 10 26 10 9 0 20 -4
26 -10z m-181 -94 c47 -43 58 -54 94 -93 40 -44 82 -45 121 -2 39 44 52 57 94
96 31 29 40 33 52 22 27 -22 63 -93 70 -137 7 -43 7 -44 -22 -40 -17 2 -28 8
-26 15 1 7 -7 13 -18 13 -11 0 -19 -6 -17 -12 1 -10 -44 -14 -195 -16 -173 -2
-197 -1 -192 13 4 11 0 15 -16 15 -16 0 -20 -4 -16 -15 4 -11 -2 -15 -24 -15
-25 0 -30 4 -30 25 0 33 24 91 56 132 14 18 27 33 29 33 1 0 20 -15 40 -34z
m191 -81 c-11 -8 -27 -15 -36 -15 -9 0 -25 7 -36 15 -17 13 -15 14 36 14 51 0
53 -1 36 -14z"/>
<path d="M355 480 c-13 -15 -14 -23 -5 -39 12 -24 42 -27 60 -6 30 36 -23 80
-55 45z"/>
<path d="M558 489 c-33 -19 -15 -69 24 -69 9 0 22 9 28 21 9 16 8 25 -6 40
-20 22 -22 22 -46 8z"/>
<path d="M430 322 c0 -18 33 -52 50 -52 17 0 50 34 50 52 0 5 -22 8 -50 8 -27
0 -50 -3 -50 -8z"/>
</g>
</svg>
